<svg width="62" height="32" viewBox="0 0 62 32" fill="none" xmlns="http://www.w3.org/2000/svg">
  <circle cx="46" cy="16" r="16" fill="#F0B90B" />
<style type="text/css">
	.st0{fill:#ffffff;stroke:#ffffff;}
</style>
<g id="Layer_2" transform="translate(45, 16) scale(0.065) translate(-250, -210)">
	<g id="Layer_1-2">
		<path class="st0" d="M264.2,33.7l41.5,42.5L201.2,180.7l-41.5-41.5L264.2,33.7z"/>
		<path class="st0" d="M327.2,96.7l41.5,42.5L201.2,306.7l-41.5-41.5L327.2,96.7z"/>
		<path class="st0" d="M138.2,159.7l41.5,42.5l-41.5,41.5l-41.5-41.5L138.2,159.7z"/>
		<path class="st0" d="M390.2,159.7l41.5,42.5L264.2,369.7l-41.5-41.5L390.2,159.7z"/>
	</g>
</g>
  <path
    d="M0 16C0 7.16344 7.16344 0 16 0C24.8366 0 32 7.16344 32 16C32 24.8366 24.8366 32 16 32C7.16344 32 0 24.8366 0 16Z"
    fill="#b4e690" />
  <path fill-rule="evenodd" clip-rule="evenodd"
    transform="translate(15, 16) scale(0.075) translate(-189, -200)"
    d="M178.500 1.188  M185.455 37.455 C 178.334 44.575,183.315 48.227,200.575 48.539 C 315.303 50.618,387.239 170.692,333.852 271.000 C 279.739 372.670,136.906 379.141,73.320 282.803 C 21.235 203.889,54.597 95.897,142.147 60.017 C 158.159 53.455,158.634 40.283,142.677 45.313 C 74.568 66.782,26.491 146.299,36.440 221.022 C 52.438 341.171,188.349 404.299,289.500 338.562 C 410.322 260.041,379.572 75.636,239.702 39.924 C 218.611 34.539,189.687 33.222,185.455 37.455 M183.791 86.939 C 173.220 90.319,172.000 93.832,172.000 120.901 C 172.000 134.623,171.630 143.000,171.023 143.000 C 170.485 143.000,167.057 141.875,163.404 140.500 C 150.770 135.745,142.594 138.308,137.890 148.500 C 133.060 158.966,135.678 212.000,141.025 212.000 C 141.937 212.000,206.370 236.833,211.274 239.075 C 215.062 240.807,215.100 241.134,214.781 269.892 C 214.534 292.238,214.302 295.408,212.845 296.327 C 211.020 297.477,214.397 298.704,139.035 269.500 C 126.679 264.712,116.006 260.053,115.317 259.147 C 114.388 257.926,114.055 250.688,114.032 231.184 C 113.995 200.704,112.809 196.871,104.729 201.126 C 101.075 203.050,101.031 203.416,101.015 232.282 C 100.997 266.000,101.846 268.935,112.990 273.663 C 116.222 275.034,155.464 290.302,173.000 297.012 C 177.125 298.590,185.225 301.757,191.000 304.050 C 210.323 311.723,216.090 312.117,222.339 306.192 C 227.956 300.867,228.000 300.573,228.000 268.388 L 228.000 238.676 225.509 234.425 C 222.082 228.577,220.869 227.976,183.233 213.469 L 149.965 200.647 150.233 176.573 L 150.500 152.500 153.088 152.199 C 154.512 152.034,160.812 153.902,167.088 156.350 C 173.365 158.799,192.675 166.264,210.000 172.939 C 227.325 179.614,242.776 185.579,244.335 186.194 C 250.229 188.520,250.000 186.778,250.000 229.257 C 250.000 267.762,249.967 268.406,247.875 270.633 C 245.086 273.601,245.136 277.882,247.986 280.190 C 251.450 282.995,254.834 282.456,258.559 278.506 C 263.827 272.920,264.186 269.298,263.823 225.425 L 263.500 186.350 260.749 182.195 C 257.233 176.885,256.305 176.435,218.880 161.928 C 201.621 155.238,186.938 149.544,186.250 149.275 C 184.222 148.481,184.476 102.667,186.520 100.623 C 188.381 98.762,183.392 97.039,241.000 119.437 C 253.375 124.248,268.116 129.979,273.757 132.171 C 279.680 134.473,284.433 136.941,285.007 138.013 C 285.627 139.171,286.000 158.781,285.999 190.184 L 285.998 240.500 283.499 243.406 C 276.727 251.279,286.110 259.574,293.504 252.250 C 299.066 246.740,299.002 247.477,298.978 189.782 C 298.952 126.732,298.990 126.921,285.500 122.234 C 283.850 121.660,271.925 117.079,259.000 112.052 C 188.453 84.617,189.726 85.042,183.791 86.939"
    fill="black" />
</svg>